<svg xmlns="http://www.w3.org/2000/svg" xmlns:xlink="http://www.w3.org/1999/xlink" width="500" zoomAndPan="magnify" viewBox="0 0 375 374.999991" height="500" preserveAspectRatio="xMidYMid meet" version="1.0"><defs><clipPath id="c5bbb31b8c"><path d="M 0 3 L 371 3 L 371 373.640625 L 0 373.640625 Z M 0 3 " clip-rule="nonzero"/></clipPath></defs><g clip-path="url(#c5bbb31b8c)"><path fill="#ffffff" d="M 359.210938 128.085938 C 353.496094 134.09375 350.53125 134.527344 344.65625 129.578125 L 337.703125 122.21875 C 337.476562 121.992188 337.210938 121.84375 336.949219 121.691406 L 298.882812 81.101562 L 255.027344 37.210938 C 254.992188 37.175781 254.980469 37.117188 254.945312 37.085938 L 254.738281 36.878906 C 248.351562 29.863281 248.394531 26.917969 254.910156 20.707031 C 258.472656 17.144531 261.0625 15.710938 263.351562 15.710938 C 266.078125 15.710938 268.355469 17.773438 271.285156 20.707031 L 285.957031 35.386719 C 285.96875 35.386719 285.980469 35.398438 285.980469 35.398438 L 303.523438 52.957031 C 303.535156 52.96875 303.535156 52.980469 303.546875 52.992188 L 312.339844 61.792969 C 312.351562 61.804688 312.375 61.804688 312.386719 61.816406 L 359.265625 108.707031 C 362.199219 111.652344 363.859375 114.519531 364.203125 117.257812 C 364.636719 120.742188 363.023438 124.273438 359.210938 128.085938 Z M 344.550781 154.492188 C 338.289062 161.070312 335.378906 161.035156 328.292969 154.492188 L 275.464844 98.691406 L 222.777344 45.976562 C 216.101562 38.734375 216.082031 35.8125 222.699219 29.496094 C 230.519531 21.671875 233.691406 24.121094 239.074219 29.496094 L 250.492188 40.921875 C 250.582031 41.039062 250.664062 41.128906 250.765625 41.242188 L 294.671875 85.179688 L 338.828125 132.269531 C 339.445312 132.832031 340.050781 133.371094 340.636719 133.863281 L 344.609375 138.046875 C 349.992188 143.433594 352.429688 146.605469 344.550781 154.492188 Z M 106.273438 281.46875 L 99.667969 274.84375 L 93.023438 267.832031 L 264.597656 96.113281 L 271.265625 102.785156 L 277.859375 109.75 Z M 148.230469 348.128906 C 144.507812 351.84375 141.507812 353.472656 139 353.082031 C 136.824219 352.75 134.742188 351.019531 131.855469 348.128906 L 120.4375 336.714844 C 120.347656 336.601562 120.265625 336.5 120.164062 336.394531 L 76.257812 292.457031 L 32.101562 245.367188 C 31.484375 244.796875 30.890625 244.269531 30.292969 243.777344 L 26.320312 239.582031 C 23.445312 236.707031 21.707031 234.609375 21.375 232.429688 C 20.984375 229.933594 22.609375 226.917969 26.378906 223.148438 C 32.628906 216.570312 35.539062 216.59375 42.636719 223.136719 L 95.464844 278.933594 L 148.152344 331.664062 C 154.828125 338.90625 154.851562 341.816406 148.230469 348.128906 Z M 116.019531 356.933594 C 108.199219 364.757812 105.023438 362.316406 99.644531 356.933594 L 11.664062 268.917969 C 8.730469 265.984375 7.070312 263.109375 6.726562 260.382812 C 6.292969 256.886719 7.90625 253.367188 11.71875 249.550781 C 17.433594 243.546875 20.398438 243.113281 26.273438 248.0625 L 30.386719 252.40625 C 30.636719 252.667969 30.925781 252.839844 31.222656 252.988281 L 72.046875 296.539062 L 115.835938 340.359375 C 115.871094 340.394531 115.882812 340.441406 115.914062 340.476562 L 116.191406 340.75 C 122.570312 347.777344 122.535156 350.710938 116.019531 356.933594 Z M 80.792969 346.378906 C 83.679688 349.265625 85.421875 351.363281 85.753906 353.539062 C 86.128906 356.027344 84.515625 359.050781 80.75 362.824219 C 74.496094 369.390625 71.585938 369.367188 64.417969 362.765625 L 38.457031 336.84375 C 38.355469 336.671875 38.21875 336.5 38.058594 336.351562 L 11.664062 309.992188 C 8.789062 307.117188 7.046875 305.019531 6.714844 302.839844 C 6.328125 300.34375 7.953125 297.328125 11.71875 293.558594 C 17.972656 286.992188 20.882812 287.003906 28.128906 293.683594 C 28.128906 293.695312 28.128906 293.695312 28.128906 293.695312 Z M 22.152344 365.664062 C 19.382812 368.425781 17.320312 368.414062 14.570312 365.664062 L 8.570312 359.671875 C 7.300781 358.535156 6.625 357.265625 6.625 355.96875 C 6.625 354.695312 7.300781 353.449219 8.707031 352.210938 L 27.144531 333.75 L 33.464844 340.039062 C 33.582031 340.222656 33.707031 340.382812 33.867188 340.542969 L 40.566406 347.226562 Z M 290.171875 14.816406 C 296.433594 8.238281 299.355469 8.273438 306.511719 14.875 L 332.460938 40.773438 C 332.574219 40.957031 332.710938 41.128906 332.859375 41.277344 L 359.265625 67.636719 C 364.648438 73.023438 367.089844 76.195312 359.210938 84.082031 C 352.945312 90.648438 350.039062 90.625 342.800781 83.945312 L 316.632812 57.769531 C 316.589844 57.722656 316.578125 57.65625 316.53125 57.609375 L 307.726562 48.808594 C 307.679688 48.773438 307.632812 48.761719 307.597656 48.726562 L 290.089844 31.214844 C 284.730469 25.851562 282.324219 22.679688 290.171875 14.816406 Z M 348.742188 11.90625 C 351.515625 9.144531 353.574219 9.15625 356.324219 11.90625 L 362.324219 17.898438 C 363.609375 19.035156 364.28125 20.304688 364.273438 21.601562 C 364.273438 22.875 363.597656 24.121094 362.1875 25.359375 L 343.726562 43.84375 L 337.464844 37.589844 C 337.347656 37.417969 337.222656 37.246094 337.0625 37.085938 L 330.320312 30.355469 Z M 363.414062 104.558594 L 353.53125 94.671875 C 356.714844 94.027344 359.886719 91.875 363.414062 88.171875 C 374.796875 76.792969 369.652344 69.734375 363.402344 63.488281 L 347.875 47.984375 L 366.183594 29.648438 C 368.726562 27.445312 370.125 24.59375 370.132812 21.613281 C 370.144531 18.632812 368.75 15.757812 366.332031 13.625 L 360.46875 7.757812 C 355.417969 2.714844 349.648438 2.714844 344.597656 7.757812 L 326.171875 26.207031 L 310.566406 10.632812 C 300.933594 1.742188 294.488281 1.789062 285.980469 10.714844 C 282.222656 14.484375 280.289062 17.761719 279.578125 20.707031 L 275.433594 16.558594 C 269.203125 10.3125 262.148438 5.15625 250.8125 16.5 C 247.101562 20.042969 244.9375 23.230469 244.296875 26.425781 L 243.21875 25.347656 C 240.230469 22.359375 236.96875 19.390625 232.808594 18.75 C 228.277344 18.050781 223.753906 20.15625 218.597656 25.304688 C 209.621094 33.863281 209.585938 40.316406 218.554688 50.035156 L 260.453125 91.964844 L 88.980469 263.566406 L 46.761719 218.964844 C 37.117188 210.082031 30.683594 210.117188 22.175781 219.046875 C 16.976562 224.25 14.878906 228.785156 15.578125 233.3125 C 15.886719 235.351562 16.769531 237.175781 17.914062 238.847656 C 14.558594 239.351562 11.238281 241.554688 7.515625 245.449219 C 2.46875 250.503906 0.246094 255.773438 0.910156 261.105469 C 1.414062 265.160156 3.636719 269.195312 7.515625 273.066406 L 17.410156 282.957031 C 14.214844 283.609375 11.042969 285.753906 7.515625 289.457031 C 2.320312 294.660156 0.222656 299.195312 0.921875 303.722656 C 1.5625 307.882812 4.527344 311.160156 7.515625 314.140625 L 23 329.601562 L 4.710938 347.925781 C 2.167969 350.125 0.773438 352.976562 0.761719 355.957031 C 0.75 358.9375 2.148438 361.8125 4.5625 363.945312 L 10.425781 369.8125 C 12.945312 372.335938 15.648438 373.59375 18.351562 373.59375 C 21.0625 373.59375 23.777344 372.335938 26.296875 369.8125 L 44.710938 351.375 L 60.367188 367.003906 C 65.164062 371.429688 69.171875 373.640625 73.042969 373.640625 C 76.933594 373.640625 80.679688 371.394531 84.953125 366.914062 C 88.523438 363.339844 90.597656 360.082031 91.339844 356.921875 L 95.496094 361.082031 C 99.046875 364.632812 102.871094 367.832031 107.589844 367.832031 C 111.152344 367.832031 115.238281 366.007812 120.105469 361.125 C 123.828125 357.585938 125.980469 354.398438 126.632812 351.203125 L 127.710938 352.277344 C 130.699219 355.269531 133.960938 358.238281 138.109375 358.878906 C 138.679688 358.972656 139.242188 359.019531 139.804688 359.019531 C 143.777344 359.019531 147.820312 356.839844 152.332031 352.324219 C 161.308594 343.777344 161.34375 337.324219 152.375 327.59375 L 110.417969 285.617188 L 281.902344 114.015625 L 324.167969 158.675781 C 328.96875 163.097656 332.976562 165.308594 336.847656 165.308594 C 340.738281 165.308594 344.484375 163.0625 348.753906 158.582031 C 357.296875 150.035156 356.53125 143.925781 352.992188 138.792969 C 356.371094 138.296875 359.691406 136.085938 363.414062 132.179688 C 368.460938 127.125 370.683594 121.851562 370.019531 116.523438 C 369.515625 112.46875 367.292969 108.445312 363.414062 104.558594 " fill-opacity="1" fill-rule="nonzero"/></g></svg>